<?xml version="1.0" encoding="UTF-8"?> <!-- Generator: Adobe Illustrator 23.1.1, SVG Export Plug-In . SVG Version: 6.00 Build 0) --> <svg xmlns="http://www.w3.org/2000/svg" xmlns:xlink="http://www.w3.org/1999/xlink" id="Layer_1" x="0px" y="0px" viewBox="0 0 512 512" style="enable-background:new 0 0 512 512;" xml:space="preserve"> <g> <path d="M430.2,254.9c-0.5-0.3-0.7-0.2-1.2-0.2c-1.5-0.2-3.7-0.3-6.6-0.3h-1.7c-1.5,0-2.6,0.2-3.3,0.6h-0.6l-2.8,1.1 c-1.9,0.4-3.8,0.6-5.8,0.6s-4.2,0.4-6.4,1.1c-3,0.7-5.9,1.4-8.9,1.9c-3,0.6-6.1,1.4-9.4,2.5v-1.7c0.4-3.7,0.6-7.7,0.8-11.9 c0.2-4.2,0.3-9,0.3-14.1c0-4.1-0.1-8.3-0.3-12.7c-0.2-4.4-0.5-9-0.8-13.8c-0.7-5.9-1.5-11.8-2.2-17.7s-2-12-3.9-18.3 s-4.1-12.6-6.6-19.1c-2.6-6.5-6.1-12.6-10.5-18.6c-2.2-2.9-4.7-5.7-7.5-8.3c-2.8-2.6-5.8-5-9.1-7.2c-3-2.2-6.4-4-10.2-5.3 c-3.9-1.3-7.8-2.3-11.9-3c-1.9-0.4-3.6-0.6-5.3-0.6c-1.7,0-3.4,0-5.3,0c-11.8,0-23.8,2-36,6.1c-14.8,5.2-28.3,12.7-40.7,22.4 c-12.4,9.8-23.7,20.4-34.1,31.9c-10,11.8-18.8,23.8-26.6,36s-14.2,24.2-19.4,36s-9.3,23.5-12.5,34.9c-1.9,6.8-3.2,13.2-4.3,19.5 c-0.5-0.2-1-0.4-1.6-0.6c-4.1-1.8-7.7-3.5-10.8-5c-3.1-1.5-6.2-3.1-9.1-5c0-8.1-0.1-16.3-0.3-24.6c-0.2-8.3-0.3-16.9-0.3-25.8 c0-5.2,0-10.2,0-15s0.2-9.8,0.6-15v-5.5c6.3-9.2,13.7-18.5,22.2-27.7c20.3-22.9,41.5-43.6,63.7-62c21.4-18.8,43.5-35.6,66.2-50.4 c22.7-14.8,43.7-26,62.9-33.8c6.6-3,10.2-5.7,10.5-8.3c0.4-2.6-1.5-3.9-5.5-3.9c-1.9,0-5,0.6-9.4,1.7c-9.6,4.1-19.8,9.1-30.5,15.2 c-10.7,6.1-21.7,12.9-33,20.5c-10.8,8.1-22.1,16.3-33.6,25.1c-11.5,8.9-22.5,17.9-33.2,27.1c-11.1,9.6-22.1,19.9-33,30.7 c-10.9,10.9-21.3,21.9-31.3,33c-2.6,3-5.3,6.2-8,9.7c-2.8,3.5-5.3,6.9-7.5,10.3c0.4-20.7,1.1-41,2.2-60.9 c1.1-19.9,2.6-38.4,4.4-55.4c0.4-4.4,0.7-8.6,1.1-12.5s0.7-7.8,1.1-11.9c0.4,0.7,0.6,1.1,0.8,1.1c0.2,0,0.5,0.2,0.8,0.6l0.6,0.6 c0.4,0,0.9-0.4,1.7-1.1c0.7-0.7,1.3-1.7,1.7-3c0.4-1.3,0.9-3.4,1.7-6.4l1.7-13.3c0-1.5,0.1-3,0.3-4.4c0.2-1.5,0.1-3.1-0.3-5v-1.2 c0-0.7-0.2-1.5-0.6-2.2l-0.6-1.1v-0.6l-1.1-1.1c-0.7,0-1.1-0.1-1.1-0.3S130.6,9,130.2,9h-0.6h-1.1c-0.4,0-0.7,0.2-1.1,0.6l-1.1,0.6 h-0.6c-1.1,1.9-1.8,3-1.9,3.6c-0.2,0.6-0.5,1.2-0.8,1.9v1.1c-1.9,7.4-3.3,15.6-4.4,24.6c-1.1,9.1-2.2,18.4-3.3,28 c-1.9,19.2-3.5,40.1-5,62.6c-1.5,22.6-2.4,45.1-2.7,67.6l-2.2,1.7c0,0.7-0.4,1.5-1.1,2.2c-4.1,5.9-8,12.3-11.9,19.1 c-3.9,6.8-6.9,13.8-9.1,20.8c-0.4,1.8-0.7,3.7-1.1,5.5c-0.4,1.9-0.6,3.7-0.6,5.5c0,4.1,0.9,7.9,2.8,11.6c1.8,4.1,4.1,7.4,6.6,10 c2.6,2.6,5.2,5,7.8,7.2l8.3,5c0.4,8.5,0.6,16.5,0.8,24.1c0.2,7.6,0.6,14.5,1.4,20.8c0.4,8.5,0.7,16.1,1.1,23 c0.4,6.8,0.7,12.6,1.1,17.4c0.4,5.5,0.7,10.5,1.1,15c0.7,5.5,2.8,8.2,6.1,8c3.3-0.2,4.8-3,4.4-8.6c-0.4-4.4-0.9-9.4-1.7-15 c-0.7-4.8-1.3-10.6-1.7-17.4s-0.7-14.5-1.1-23c-0.4-5.5-0.6-11.5-0.8-18c-0.2-6.5-0.5-13.2-0.8-20.2c3,1.5,5.9,2.9,8.9,4.4 c3,1.5,5.7,2.6,8.3,3.3c1,0.4,1.9,0.8,2.9,1.2c-0.3,2.2-0.5,4.4-0.7,6.6c-0.7,9.2,0.1,17.7,2.5,25.5c2.4,7.8,5.1,13.1,8,16.1 l0.6,0.6c0,0.4,0.2,0.6,0.6,0.6c2.6,2.6,4.6,4.1,6.1,4.4c1.1,1.1,2.4,1.7,3.9,1.7c0.4,0.7,1.1,0.6,2.2-0.6l1.1-1.1v-0.6 c0-0.4-0.6-1.7-1.7-3.9l-1.7-1.1l-2.8-2.8l-1.1-1.1l-1.1-1.1v0.6c-3-3-5.5-7.6-7.5-13.8c-2-6.3-2.7-14-1.9-23.3 c0.1-1.2,0.2-2.5,0.3-3.7c7.7,3.1,15.4,5.8,22.9,8.2c10.7,3.3,20.9,6.1,30.5,8.3c9.2,2.2,17.6,3.9,25.2,5s13.9,2,19.1,2.8 c5.4,0.6,10.2,1,14.5,1.1c-5.2,4.4-10.2,9.2-15.1,14.4c-1.9,2.2-4.1,4.8-6.6,7.8c-2.6,3-4.8,5.7-6.6,8.3l-2.2,2.8 c-0.7,0.7-1.4,1.7-1.9,2.8c-0.6,1.1-1.2,2-1.9,2.8c-1.9,3-3.6,6.2-5.3,9.7s-3,6.7-4.2,9.7c-1.9,4.1-3.4,8.2-4.7,12.5 c-1.3,4.2-2.3,8.8-3,13.6c-1.1,5.5-1.7,11.6-1.7,18.3c0,1.8,0.1,3.5,0.3,5s0.3,3.1,0.3,5c1.1,9.2,4,18.5,8.6,27.7 s11,16.4,19.1,21.6c8.5,5.5,18.1,8.7,28.8,9.4c9.6,0.4,19.2-1.7,28.8-6.1c8.9-4.4,16.6-10.2,23.3-17.2c6.6-7,12.6-14.4,17.7-22.2 c2.6-4.1,4.9-8.2,6.9-12.5c2-4.2,4-8.4,5.8-12.5l1.1-2.2l4.4-9.4l1.7-6.1v0.6l2.8-7.2c3-8.1,5.5-16.3,7.8-24.6 c2.2-8.3,4.4-16.3,6.6-24.1c6.6-27.3,11.4-52.4,14.4-75.3l1.1-2.8v-1.7c0-0.7,0.1-1.4,0.3-1.9c0.2-0.6,0.3-1.4,0.3-2.5v0.5 c0.4-0.4,0.6-1.1,0.6-2.2v-2v-3.9c4.1-0.7,7.7-1.6,10.8-2.5c3.1-0.9,6.2-1.6,9.1-1.9c1.8,0,3.6-0.3,5.3-0.8c1.7-0.5,3.2-1,4.7-1.4 l4.4-0.5l1.1-0.6c0.4,0,0.6-0.1,0.8-0.3c0.2-0.2,0.5-0.3,0.8-0.3h0.6h1.7c2.2,0,1.7-0.1,5.3-0.1 C429.8,259.3,430.8,255.3,430.2,254.9z M106.7,263.9c0.2,5.5,0.3,11.1,0.3,16.6c-0.7-0.4-0.9-0.5-0.6-0.3c0.4,0.2,0.2-0.1-0.6-0.8 l-2.8-1.7c-2.2-2.2-4.5-4.5-6.9-6.9s-4.3-4.7-5.8-6.9h0.6c-0.7-1.8-1.3-3.4-1.7-4.7c-0.4-1.3-0.6-2.7-0.6-4.2c0-1.8,0.2-3.5,0.6-5 s0.7-3.1,1.1-5c1.8-5.2,4.2-10.5,7.2-16.1c3-5.5,6.1-10.9,9.4-16.1c-0.4,6.7-0.6,12.5-0.6,17.5s0,10.6,0,16.9 C106.4,252.8,106.5,258.3,106.7,263.9z M372.9,273.3c-1.5,11.1-3.7,24.4-6.6,39.9c-3,15.5-6.1,30.1-9.4,43.8 c-1.9,7.8-3.9,15.5-6.1,23.3s-4.8,15.9-7.8,24.4l-1.7,2.8c-0.4,3-1.3,6.1-2.8,9.4l-5,12.2c-1.9,4.1-3.8,8.1-5.8,12.2 s-4,7.8-5.8,11.1c-4.8,7.4-10.3,14.3-16.6,20.8c-6.3,6.5-13.1,11.5-20.5,15.2c-8.1,4.1-16.4,6.1-24.9,6.1 c-8.5-0.7-16.3-3.3-23.3-7.8c-7.4-4.8-13.2-11.2-17.4-19.1s-6.9-16.2-8-24.6c-0.4-1.9-0.6-3.6-0.6-5.3c0-1.7,0-3.4,0-5.3 c0-13.7,3-27,8.9-39.9c1.1-3.3,2.4-6.6,3.9-9.7s3-5.8,4.4-8c0.4-0.7,0.7-1.4,1.1-1.9c0.4-0.6,0.9-1.6,1.7-3l2.2-2.8 c1.8-3,3.8-5.7,5.8-8.3c2-2.6,4.5-5.4,7.5-8.3c5.9-6.3,11.8-12,17.7-17.2s11.8-9.8,17.7-13.9c11.8-8.9,23.8-16.6,36-23.3 c12.2-6.6,23.6-12.2,34.3-16.6c3.7-1.5,7.3-3,10.8-4.4c3.5-1.5,6.9-2.8,10.2-3.9v2.1H372.9z M375.1,232.8c0,5.5-0.1,10.5-0.3,15 c-0.2,4.4-0.5,8.7-0.8,12.7v5.5c-8.9,2.2-17,5-24.4,8.3c-10.7,4.4-22.3,10-34.6,16.6c-12.4,6.6-24.8,14.2-37.4,22.7 c-5.4,4.4-11,9-16.7,13.7c-0.8-0.1-1.7-0.2-2.7-0.4c-1.5,0-3-0.2-4.4-0.6c-1.5,0-3.1-0.1-5-0.3c-1.9-0.2-4.1-0.5-6.6-0.8 c-5.2-0.7-11.5-1.8-19.1-3c-7.6-1.3-15.8-3.1-24.6-5.3c-8.9-2.2-18.6-5-29.1-8.3c-8-2.5-16.2-5.5-24.7-8.8 c2.3-16.5,8-34.4,17.2-53.8c5.2-11.4,11.6-23.4,19.4-35.7c7.8-12.4,16.2-23.9,25.5-34.6c9.6-10.3,20.7-20.1,33.2-29.4 c12.5-9.2,25.5-16.4,38.8-21.6c5.2-1.5,10.5-2.8,16.1-3.9c5.5-1.1,10.9-1.7,16.1-1.7c1.8,0,3.5,0,5,0s3,0.2,4.4,0.6 c7,1.1,13.3,3.5,18.8,7.2s10.2,8.1,13.8,13.3c4.1,5.2,7.3,10.8,9.7,16.9c2.4,6.1,4.3,11.9,5.8,17.4c1.8,5.9,3.1,11.7,3.9,17.4 c0.7,5.7,1.5,11.2,2.2,16.3c0.4,4.4,0.6,8.7,0.6,12.7C375.1,225.3,375.1,229.1,375.1,232.8z"></path> </g> </svg> 